<?xml version="1.0" encoding="utf-8"?>
<!-- Generator: Adobe Illustrator 25.4.1, SVG Export Plug-In . SVG Version: 6.00 Build 0)  -->
<svg version="1.1" id="Layer_1" xmlns="http://www.w3.org/2000/svg" xmlns:xlink="http://www.w3.org/1999/xlink" x="0px" y="0px"
	 width="600px" height="849.9px" viewBox="0 0 600 849.9" style="enable-background:new 0 0 600 849.9;" xml:space="preserve">
<path d="M68,844.7c-15-4.6-20.6-12-17.7-23.2c2.5-9.7,25.2-17.2,60.1-20c17.6-1.4,37.9-4.6,45.1-7.2c37.3-13.5,73.7-41.3,82.8-63.2
	c2.4-5.8,7-43.8,10.9-90c6.2-73.7,6.3-80.4,1.8-85.3c-2.7-3-24.7-15.3-48.9-27.4c-38.7-19.4-46.8-24.8-67.2-44.8
	c-21-20.7-24.5-25.9-37.5-55.8c-15.8-36.6-43-116.8-51.3-151.4c-5-20.7-6.7-23.6-24.1-40.5C8,222.2,2.8,214.9,1.3,206.4
	c-3.8-20.3,0.6-32.4,17.3-47.9l15.2-14.1l-2.1-61c-2.1-59.3-2-61.3,4.2-69.1c3.5-4.4,11.4-9.5,17.5-11.2c15.3-4.2,478.2-4.2,493.5,0
	c6.1,1.7,14,6.8,17.5,11.2c6.2,7.9,6.4,9.7,4.2,63.7c-1.3,30.5-2.1,58.1-1.9,61.2c0.2,3.1,7,11.9,15.2,19.5
	c16.3,15.2,20.7,27.4,17,47.6c-1.6,8.5-6.8,15.8-20.9,29.6c-17.5,17-19.2,19.9-24.2,40.5c-8.6,35.5-35.5,115.4-51.1,151.3
	c-13,30-16.5,35.1-37.5,55.8c-20.4,20.1-28.4,25.5-67.2,44.8c-24.2,12.1-46.2,24.4-48.9,27.4c-4.5,4.9-4.3,11.6,1.8,85.7
	c3.8,45.1,8.5,84.7,10.8,90.2c8.7,21,46,49.2,82.9,62.5c7.1,2.6,27.6,5.9,45.5,7.4c35.3,3,57.1,10.2,59.6,19.8
	c3,11.5-2.7,18.5-19,23.4C507.9,851.7,90.2,851.5,68,844.7L68,844.7z"/>
</svg>
