<?xml version="1.0" encoding="utf-8"?>
<!-- Generator: Adobe Illustrator 25.4.1, SVG Export Plug-In . SVG Version: 6.00 Build 0)  -->
<svg version="1.1" id="Layer_1" xmlns="http://www.w3.org/2000/svg" xmlns:xlink="http://www.w3.org/1999/xlink" x="0px" y="0px"
	 width="600.1px" height="533.4px" viewBox="0 0 600.1 533.4" style="enable-background:new 0 0 600.1 533.4;" xml:space="preserve"
	>
<g transform="translate(-510.31037,-331.03141)">
	<path d="M714,852.9c-13.2-13.2-14.8-23.5-7.1-45.5c7-19.8,16.6-30.2,47-51c15.4-10.5,42.4-30,60-43.3
		c30.7-23.2,46.2-32.9,138.6-86.2c67.2-38.8,158-75,158-63c0,5.7-21.6,21.2-51.9,37.1c-38.9,20.4-148,94.3-180.5,122.2
		c-25.6,22-59.5,59-95.2,103.8C750.5,867.5,734.6,873.5,714,852.9L714,852.9z M582.5,816.1c-8.5-9.1-10.3-20.9-6.2-40.5
		c5.2-25.2,4.4-50.1-2-63.3c-4.6-9.5-9.8-13.4-30.8-23.7c-13.9-6.8-27.1-14.8-29.3-17.8c-8.9-12.1-1.9-42.4,16.2-69.6
		c15-22.7,70.1-84.7,103.2-116.3c34.3-32.7,56.1-47.6,83-56.7c20.3-6.9,32.1-12.4,98.2-45.8c78.1-39.5,156-62.4,156-46
		c0,2.8-15.4,11.1-42,22.6c-58,25.2-67.5,30.8-109.9,65.2c-20.4,16.6-52.7,42-71.8,56.4c-36.4,27.5-64.2,55.4-93,93.2
		c-37.1,48.6-41,58.8-29.9,77.1c3.3,5.4,5.9,13.8,6,18.8c0.1,11.9,5.9,8.1,11.5,3.7c8.3-6.5,22.9-19.8,47-42.4
		c63.7-60,148.7-122.5,207.5-152.7c38-19.5,140-61.4,169-69.5c26.6-7.4,42.1-8.1,42.1-2c0,5.3-7.4,9.8-70.7,43
		c-87.2,45.6-123.1,71.6-191.9,138.9c-37.2,36.4-103.4,96.2-150.3,135.8c-5.4,4.6-24.9,25.8-43.2,47.2c-18.4,21.4-36.9,41.6-41.1,45
		C600.2,824.3,590,824.2,582.5,816.1L582.5,816.1z"/>
</g>
</svg>
