<?xml version="1.0" encoding="utf-8"?>
<!-- Generator: Adobe Illustrator 26.0.1, SVG Export Plug-In . SVG Version: 6.00 Build 0)  -->
<svg version="1.1" id="Layer_1" xmlns:svg="http://www.w3.org/2000/svg"
	 xmlns="http://www.w3.org/2000/svg" xmlns:xlink="http://www.w3.org/1999/xlink" x="0px" y="0px" viewBox="0 0 347 347"
	 style="enable-background:new 0 0 347 347;" xml:space="preserve">
<style type="text/css">
	.st0{fill:#FFFFFF;}
</style>
<path d="M347,173.5c0,95.8-77.7,173.5-173.5,173.5S0,269.3,0,173.5S77.7,0,173.5,0S347,77.7,347,173.5z"/>
<path class="st0" d="M340.1,173.5c0,92-74.6,166.6-166.6,166.6S6.9,265.5,6.9,173.5S81.5,6.9,173.5,6.9S340.1,81.5,340.1,173.5z"/>
<path d="M327.9,173.5c0,85.3-69.1,154.4-154.4,154.4c-85.3,0-154.4-69.1-154.4-154.4c0-85.3,69.1-154.4,154.4-154.4
	S327.9,88.2,327.9,173.5C327.9,173.5,327.9,173.5,327.9,173.5z"/>
<path class="st0" d="M262.3,173.5c0,49-39.8,88.8-88.8,88.8c-49,0-88.8-39.8-88.8-88.8c0-49,39.7-88.8,88.8-88.8
	C222.5,84.7,262.3,124.5,262.3,173.5C262.3,173.5,262.3,173.5,262.3,173.5z"/>
<path d="M132.5,132.5c20-20,41-98,41-98v139L132.5,132.5z"/>
<path class="st0" d="M214.5,132.5c-20-20-41-98-41-98v139L214.5,132.5z"/>
<path d="M214.5,132.5c20,20,98,41,98,41h-139L214.5,132.5z"/>
<path class="st0" d="M214.5,214.5c20-20,98-41,98-41h-139L214.5,214.5z"/>
<path d="M214.5,214.5c-20,20-41,98-41,98v-139L214.5,214.5z"/>
<path class="st0" d="M132.6,214.4c20,20,41,98,41,98v-139L132.6,214.4z"/>
<path d="M132.5,214.5c-20-20-98-41-98-41h139L132.5,214.5z"/>
<path class="st0" d="M132.5,132.5c-20,20-98,41-98,41h139L132.5,132.5z"/>
</svg>
