<?xml version="1.0" encoding="utf-8"?>
<!-- Generator: Adobe Illustrator 25.4.1, SVG Export Plug-In . SVG Version: 6.00 Build 0)  -->
<svg version="1.1" id="Layer_1" xmlns="http://www.w3.org/2000/svg" xmlns:xlink="http://www.w3.org/1999/xlink" x="0px" y="0px"
	 width="600px" height="470.4px" viewBox="0 0 600 470.4" style="enable-background:new 0 0 600 470.4;" xml:space="preserve">
<path d="M152.9,467.8C132.6,464.4,5.3,435.3,2,433.3c-4.5-2.8,0.6-6.4,11.9-8.5c10-1.9,82.2-20.3,112.5-28.7
	c13.2-3.7,19-12.1,14.4-20.8c-2.7-5-66.3-61-123.9-109c-17.4-14.5-21-20.2-12.7-20.2c2.5,0,41.6,15,86.9,33.3
	c45.3,18.3,84.8,32.8,87.8,32.2c12.3-2.3,8.1-17.7-30.5-112.9C111.8,108.4,105.9,90,115.1,95.2c2.4,1.3,33.4,41.2,69.1,88.7
	c65,86.6,70.8,92.6,79.5,82c2.1-2.5,9.1-56.1,16.8-129.5C294,8.6,295.2,0,300,0c4.3,0,5.3,6.6,19.2,137.7
	c13.7,129.3,15,135.3,27.7,131.2c3.1-1,35.2-41,71.3-88.8c36.1-47.9,66.7-87,68.2-87c5.9,0,0.9,15-33.7,100.7
	c-20,49.5-37.5,93.8-38.9,98.6c-3.2,10.3,1,19.9,8.7,19.9c2.9,0,40.4-14.4,83.2-31.9c77.1-31.6,94.3-37.4,94.3-32
	c0,1.5-20.5,20.3-45.6,41.6c-99.3,84.5-101.3,86.5-95.6,97.1c3.6,6.8,6,7.6,78.2,25.6c66.5,16.7,64.8,16.1,61.3,19.5
	c-4.1,3.9-104.2,26.8-163.5,37.4c-14.6,2.6-16.4-1.3-16.4-36.4c-0.1-26.7-1.3-35.4-7-49.7c-9.7-24.3-34.1-51.4-59.9-62.9
	c-34.8-15.5-73.6-14.5-103.1,0c-47.3,23.3-71.4,66.2-67.4,119.9c1.7,22.4,1.2,24.7-4,27.8C169,472.8,159.8,469,152.9,467.8
	L152.9,467.8z"/>
</svg>
