<?xml version="1.0" encoding="utf-8"?>
<!-- Generator: Adobe Illustrator 25.4.1, SVG Export Plug-In . SVG Version: 6.00 Build 0)  -->
<svg version="1.1" id="Layer_1" xmlns="http://www.w3.org/2000/svg" xmlns:xlink="http://www.w3.org/1999/xlink" x="0px" y="0px"
	 width="600px" height="798.3px" viewBox="0 0 600 798.3" style="enable-background:new 0 0 600 798.3;" xml:space="preserve">
<path d="M245.3,796.7c-1-1-0.9-4,0.1-6.8c1-2.7,39.2-63.7,84.8-135.5c45.6-71.8,84.6-133.7,86.6-137.5c5.9-11,3-25.3-6-30.3
	c-7.1-4-24.2-1.8-193.6,24.8c-102.2,16-189.3,29.1-193.7,29C11,540.3,0,529.7,0,517.6c0-12.8,13.7-39.3,96.3-186.1
	c76.1-135.3,74.8-130,34.3-138.4c-13.3-2.7-18.9-12.1-15.5-25.7C118,155.8,194.6,30,206.2,17.8c5.7-6,15.4-12.4,21.7-14.3
	C242.3-0.8,554.2-1.3,565.4,3c11.1,4.2,14.8,13,10.2,23.8c-2.1,4.9-78.1,86-168.8,180.3C316,301.3,240.1,381.6,238,385.4
	c-3,5.7-2.9,8.1,0.4,12.6c3.9,5.4,8.1,4.8,111.7-16.1c59.2-11.9,112.7-21.7,118.9-21.7c14.9,0,21,6.6,29.3,31.9
	c15.5,47.1,20.5,50.8,63.6,47.7c32-2.3,40.7,0.9,37.5,13.8c-1,4-25.2,30.1-53.7,58.1c-28.5,27.9-89,87.4-134.4,132
	C249.1,803.4,250.6,802,245.3,796.7L245.3,796.7z"/>
</svg>
