<?xml version="1.0" encoding="utf-8"?>
<!-- Generator: Adobe Illustrator 25.4.1, SVG Export Plug-In . SVG Version: 6.00 Build 0)  -->
<svg version="1.1" id="Layer_1" xmlns="http://www.w3.org/2000/svg" xmlns:xlink="http://www.w3.org/1999/xlink" x="0px" y="0px"
	 width="600px" height="470.4px" viewBox="0 0 600 470.4" style="enable-background:new 0 0 600 470.4;" xml:space="preserve">
<g transform="translate(-109.58004,-73.095985)">
	<path d="M328.6,541.7c-82.1-7.9-162.8-29-196.6-51.4c-35.4-23.5-30-48,23.3-104.3c47.8-50.6,69.8-93,100.8-194.3
		c20.4-66.6,39.2-108.4,51.9-115.5c19.6-10.9,33.2,4.9,59.2,68.9c27.6,68.1,51.3,109.4,80.5,140.5c8.8,9.4,17.4,15.8,21.2,15.8
		c7.5,0,18.4-13.1,38.1-45.5c15.9-26.2,28.1-34.5,46.6-31.6c17.1,2.7,30.1,19.7,45.3,59.6c7.1,18.7,17.4,42.8,22.8,53.6
		c10.1,20.2,35.7,57,39.7,57.1c4.6,0.1,39.1,34.8,43.9,44.1c14.4,28.1-6.9,53-61.5,71.6c-65.6,22.4-124.9,31.4-217.5,32.9
		C388.2,543.9,344.3,543.2,328.6,541.7L328.6,541.7z"/>
</g>
</svg>
