<?xml version="1.0" encoding="utf-8"?>
<!-- Generator: Adobe Illustrator 25.4.1, SVG Export Plug-In . SVG Version: 6.00 Build 0)  -->
<svg version="1.1" id="Layer_1" xmlns="http://www.w3.org/2000/svg" xmlns:xlink="http://www.w3.org/1999/xlink" x="0px" y="0px"
	 width="600px" height="600px" viewBox="0 0 600 600" style="enable-background:new 0 0 600 600;" xml:space="preserve">
<g transform="translate(-256.85709,-69.790911)">
	<path d="M490.2,610.5c-49.4-49.4-59.3-60.8-59.3-67.9c0-6.9,7.2-15.9,37.5-46.8c35.2-35.9,37.5-38.9,37.5-50.1
		c0-15.6-9.4-24.9-25.3-24.9c-10.6,0-14.2,2.7-49.7,37.5c-30.9,30.3-39.9,37.5-46.8,37.5c-7.1,0-18.5-10-67.9-59.3
		c-44.7-44.7-59.3-61.1-59.3-66.7c0-5.5,14.6-21.9,59.3-66.7c49.4-49.4,60.8-59.3,67.9-59.3c6.9,0,15.9,7.2,46.8,37.5
		c35.9,35.2,38.9,37.5,50.1,37.5c15.6,0,24.9-9.4,24.9-25.3c0-10.6-2.7-14.2-37.5-49.7c-30.3-30.9-37.5-39.9-37.5-46.8
		c0-7.1,10-18.5,59.3-67.9c44.7-44.7,61.1-59.3,66.7-59.3c5.5,0,21.9,14.6,66.7,59.3c49.4,49.4,59.3,60.8,59.3,67.9
		c0,6.9-7.2,15.9-37.5,46.8c-35.2,35.9-37.5,38.9-37.5,50.1c0,15.6,9.4,24.9,25.3,24.9c10.6,0,14.2-2.7,49.7-37.5
		c30.9-30.3,39.9-37.5,46.8-37.5c7.1,0,18.5,10,67.9,59.3c44.7,44.7,59.3,61.1,59.3,66.7c0,5.5-14.6,21.9-59.3,66.7
		c-49.4,49.4-60.8,59.3-67.9,59.3c-6.9,0-15.9-7.2-46.8-37.5c-35.9-35.2-38.9-37.5-50.1-37.5c-15.6,0-24.9,9.4-24.9,25.3
		c0,10.6,2.7,14.2,37.5,49.7c30.3,30.9,37.5,39.9,37.5,46.8c0,7.1-10,18.5-59.3,67.9c-44.7,44.7-61.1,59.3-66.7,59.3
		C551.3,669.8,534.9,655.2,490.2,610.5L490.2,610.5z M556.9,396.8h103.4l34.6,34.5l34.6,34.5l47.9-48l47.9-48l-47.9-48l-47.9-48
		l-34.6,34.5l-34.6,34.5H556.9H453.4l-34.6-34.5l-34.6-34.5l-47.9,48l-47.9,48l47.9,48l47.9,48l34.6-34.5l34.6-34.5H556.9z"/>
</g>
</svg>
