<?xml version="1.0" encoding="UTF-8" standalone="no"?>
<svg xmlns="http://www.w3.org/2000/svg" width="667pt" height="1196pt" viewBox="0 0 667 1196" version="1.1">
   <path d="m 333.03,0 h 0.3 c 4.1,13.57 4.27,27.94 5.77,41.94 3.13,43.01 5.23,86.08 7.88,129.12 3.28,54.75 7.09,109.47 12.66,164.05 4.66,43.7 10.12,87.41 19.31,130.42 3.23,14.57 6.67,29.13 11.57,43.23 13.61,0.93 27.23,1.85 40.78,3.49 6.52,-18.82 9.7,-38.58 13.1,-58.15 6.7,-41.84 11.44,-83.96 15.92,-126.08 4.19,-40.66 8.05,-81.35 11.63,-122.07 3.06,-30.11 4.92,-60.36 9.12,-90.35 2.44,8.14 2.91,16.69 4.12,25.07 11.42,105.6 19.45,211.71 37.55,316.47 4.87,25.69 9.58,51.64 18.88,76.16 12.77,3.6 25.27,8.14 37.53,13.2 8.8,-21.71 14.32,-44.58 19.06,-67.46 13.01,-64.09 18.89,-129.3 27.51,-194.05 1.61,-11.17 3.16,-22.4 6.34,-33.26 2.37,5.91 2.83,12.33 3.84,18.57 5.73,43.75 9.4,87.74 13.46,131.67 0.41,6.11 1.3,12.18 1.38,18.31 l 0.48,0.63 c 3.66,48.63 8.12,97.21 11.7,145.84 1.37,16.55 2.58,33.1 3.91,49.64 -71.49,27.17 -134.87,74 -183.91,132.47 -45.96,54.58 -80.45,118.51 -102.5,186.29 -17.57,53.49 -28.52,108.98 -35.04,164.85 -3.13,25.27 -4.95,50.67 -7.24,76.02 -0.85,6.72 -1.01,13.7 -3.83,19.98 h -1.52 c -0.97,-1.89 -1.82,-3.85 -2.16,-5.94 -1.43,-7.97 -1.97,-16.05 -2.8,-24.08 -3.29,-42.87 -7.72,-85.71 -15.5,-128.03 C 300.57,974.18 282.23,911.14 252.7,853.2 218.16,784.88 169.53,723.11 108.36,676.72 75.38,651.59 38.8,631.22 0.08,616.38 6.75,531.93 13.19,447.46 21.18,363.12 c 2.74,-30.78 5.74,-61.56 9.73,-92.21 1.11,-6.39 1.49,-13.01 3.97,-19.08 4.18,14.38 5.72,29.33 7.79,44.11 7.68,60.45 13.71,121.2 25.62,181.02 4.89,23.57 10.34,47.19 19.52,69.52 12.26,-5.06 24.77,-9.54 37.52,-13.23 1.99,-4.84 3.58,-9.83 5.08,-14.84 6.98,-23.89 11.59,-48.4 15.79,-72.92 9.36,-56.56 15.83,-113.54 21.82,-170.54 5.1,-47.31 9.13,-94.74 14.7,-142 0.92,-5.8 1.19,-11.77 3.22,-17.34 4.03,30.67 6.21,61.54 9.19,92.32 3.09,35.04 6.46,70.06 9.91,105.07 4.79,45.96 9.74,91.93 16.91,137.6 3.51,20.54 6.72,41.3 13.45,61.08 2.87,0.39 5.77,-0.12 8.64,-0.32 10.79,-1.25 21.65,-1.74 32.47,-2.71 11.36,-34.93 17.35,-71.32 22.73,-107.56 15.36,-110.12 19.89,-221.29 26.7,-332.13 1.8,-23.03 2.54,-46.25 7.09,-68.96 z" style="fill:#000000"/>
</svg>
