<?xml version="1.0" encoding="utf-8"?>
<!-- Generator: Adobe Illustrator 25.4.1, SVG Export Plug-In . SVG Version: 6.00 Build 0)  -->
<svg version="1.1" id="Layer_1" xmlns="http://www.w3.org/2000/svg" xmlns:xlink="http://www.w3.org/1999/xlink" x="0px" y="0px"
	 width="600px" height="758.5px" viewBox="0 0 600 758.5" style="enable-background:new 0 0 600 758.5;" xml:space="preserve">
<g transform="translate(-248.75759,103.7998)">
	<path d="M549.4,651.2c-7.3-3.3-9.8-6.4-9.8-12c0-9.6,8.1-14.8,32.8-21c10.6-2.7,21.1-6.3,23.3-8.1c6.8-5.7,4.5-16.6-5.2-24.8
		c-23.1-19.4-67.6-21.6-115.4-5.5c-36.9,12.4-52.5,14.1-79.6,8.5c-34.6-7.1-67.8-25-94-50.6c-26.2-25.7-39.1-47.2-47.2-78.9
		c-13.8-53.9-1.3-109,31.8-140.8c22.2-21.3,63.3-33.2,73.2-21.3c3,3.7,1.4,5.8-9.8,12.5c-39,23.5-42.4,77.1-7.4,114.2
		c29.4,31.1,66.4,43,133.3,43.1c78,0,108.5,6.5,138.2,29.1c15.9,12.1,33.4,35.3,37.5,49.9c5,17.6,7.8,20.7,15.1,16.8
		c9.1-4.9,17.3-26,17.4-45c0.2-43.5-29.4-86.8-73.9-108c-17.4-8.3-26.9-10.3-98.2-20.9c-23-3.4-33.2-7.9-48.7-21.5
		c-11.8-10.4-19.4-23-19.4-32.2c0-8.9,3.1-9.5,23.1-4.1c14.9,4,19.8,4.2,27,1.2c13.3-5.5,20.4-19.7,20.4-40.9
		c0.1-42.4-35.2-71.2-114-93.1c-43.4-12.1-82.2-41.4-98.4-74.5C284.3,87.9,279.3,39.5,289,2.4c17.9-68.8,82.1-110.9,161.1-105.8
		c35.6,2.3,62.7,14,58.7,25.3c-0.4,1.2-14.3,2.3-30.8,2.6c-19.9,0.3-34.6,2.1-43.5,5.5c-43.6,16.3-61.9,50.8-49.7,93.7
		c7.3,25.6,28.7,45,77.1,70c48.4,25.1,50,26.2,89.6,64.2c38,36.5,51.7,44.9,72.6,44.9c48.5,0,64.7-58.9,28.2-102.1
		C642,88.4,633.9,84,592.1,68.4c-27.1-10.1-33.2-13.5-34-18.9c-1.9-13,20-15.9,58.9-7.9c45.3,9.3,94.9,38.5,137.4,80.8
		c40.5,40.4,65.4,84.3,80.8,143c35.5,134.6-0.3,268.7-90.9,340.7c-22.3,17.7-59.4,35.5-87.7,41.9C625.3,655.2,562.3,657,549.4,651.2
		L549.4,651.2z"/>
</g>
</svg>
